#!OML:ASF F:\VICON\USERDATA\INSTALL\rory7\rory7.ASF
:FULLY-SPECIFIED
:DEGREES
1285
root 2.43716 18.8855 7.25658 -180.996 1.16904 175.335
lowerback 20.7159 0.494588 -1.07337
upperback 3.82168 0.985505 -1.89709
thorax -7.40056 0.787242 -1.74201
lowerneck -11.1351 0.378564 -7.07093
upperneck 25.6452 -0.557804 4.29822
head 9.9788 -1.00228 2.56026
rclavicle -3.97569e-015 -1.13307e-014
rhumerus -1.23102 16.9149 -60.8783
rradius 71.8737
rwrist 10.5437
rhand -29.7798 -364.497
rfingers 7.12502
rthumb -3.10482 325.546
lclavicle -3.97569e-015 -1.13307e-014
lhumerus -7.89898 -27.2265 57.5082
lradius 54.2922
lwrist 16.5376
lhand -23.3334 22.6424
lfingers 7.12502
lthumb 3.12114 52.5994
rfemur 0.110321 16.7405 21.3014
rtibia 19.2568
rfoot -17.8153 -14.1173
rtoes 2.70707
lfemur -66.1554 12.9758 -20.2123
ltibia 86.8661
lfoot -17.8725 -4.60192
ltoes -15.2704
1286
root 2.45739 18.8932 7.28084 -181.082 1.45062 175.251
lowerback 20.592 0.541604 -1.16353
upperback 3.74148 1.00975 -1.90043
thorax -7.42271 0.792962 -1.69825
lowerneck -11.077 0.34734 -6.96973
upperneck 25.3811 -0.566644 4.21148
head 9.87376 -0.99173 2.50864
rclavicle -1.31198e-014 1.22253e-014
rhumerus -3.0775 17.859 -61.5797
rradius 70.8131
rwrist 11.3376
rhand -29.5649 -363.85
rfingers 7.12502
rthumb -2.89723 326.19
lclavicle -1.31198e-014 1.22253e-014
lhumerus -10.3497 -27.7758 59.0988
lradius 52.7218
lwrist 16.4695
lhand -23.7193 22.7825
lfingers 7.12502
lthumb 2.74845 52.7446
rfemur 0.421482 16.9023 21.2638
rtibia 18.6633
rfoot -17.5319 -14.0062
rtoes 3.00078
lfemur -66.0654 13.4059 -20.2095
ltibia 86.712
lfoot -17.71 -4.80602
ltoes -15.4307
1287
root 2.4764 18.8953 7.30206 -181.125 1.64676 175.158
lowerback 20.3699 0.561992 -1.23447
upperback 3.66159 1.0027 -1.9125
thorax -7.39232 0.78239 -1.66379
lowerneck -10.7635 0.311708 -7.02719
upperneck 24.8271 -0.593421 4.3366
head 9.61776 -0.971725 2.55295
rclavicle 3.77691e-015 -2.5345e-014
rhumerus -4.87156 18.6673 -62.3135
rradius 69.7073
rwrist 12.109
rhand -29.3728 -362.344
rfingers 7.12502
rthumb -2.71178 327.694
lclavicle 3.77691e-015 -2.5345e-014
lhumerus -12.6765 -28.2861 60.621
lradius 51.0783
lwrist 16.3946
lhand -23.9685 22.7894
lfingers 7.12502
lthumb 2.50782 52.7544
rfemur 0.652748 17.0179 21.2023
rtibia 18.1413
rfoot -17.3484 -13.8993
rtoes 3.3017
lfemur -65.9961 13.7244 -20.2344
ltibia 86.5636
lfoot -17.4687 -5.02671
ltoes -15.1919
1288
root 2.49216 18.8989 7.31778 -181.149 1.71275 175.078
lowerback 20.14 0.487967 -1.24476
upperback 3.57749 0.884073 -1.91939
thorax -7.36338 0.716281 -1.62921
lowerneck -10.4901 0.271086 -7.21484
upperneck 24.2609 -0.61772 4.55869
head 9.36771 -0.951091 2.65334
rclavicle -3.67752e-015 1.42131e-014
rhumerus -6.6256 19.6784 -63.0911
rradius 68.7003
rwrist 12.4901
rhand -29.3871 -361.606
rfingers 7.12502
rthumb -2.72552 328.431
lclavicle -3.67752e-015 1.42131e-014
lhumerus -15.0969 -28.3191 62.2096
lradius 49.4557
lwrist 15.8656
lhand -23.5233 21.9943
lfingers 7.12502
lthumb 2.9377 51.9538
rfemur 0.843477 16.9498 21.1445
rtibia 17.721
rfoot -17.0772 -13.7674
rtoes 3.9513
lfemur -65.9169 13.929 -20.2885
ltibia 86.4353
lfoot -17.1468 -5.30113
ltoes -14.8106
1289
root 2.50881 18.9099 7.33591 -181.321 1.86853 174.921
lowerback 20.1706 0.453437 -1.36312
upperback 3.50266 0.797461 -1.97579
thorax -7.46303 0.672869 -1.60238
lowerneck -10.3301 0.267029 -7.05068
upperneck 23.825 -0.578584 4.42692
head 9.18295 -0.910933 2.579
rclavicle 1.635e-014 -2.01766e-014
rhumerus -8.4841 20.5428 -64.0058
rradius 67.792
rwrist 12.9042
rhand -29.0329 -361.255
rfingers 7.12502
rthumb -2.38348 328.778
lclavicle 1.635e-014 -2.01766e-014
lhumerus -17.3921 -28.1677 63.7034
lradius 47.8587
lwrist 15.1317
lhand -23.1624 22.4632
lfingers 7.12502
lthumb 3.28626 52.4176
rfemur 1.15132 16.9132 21.0316
rtibia 17.3243
rfoot -16.6633 -13.6094
rtoes 4.65032
lfemur -65.7026 14.1922 -20.3576
ltibia 86.3152
lfoot -16.7956 -5.64113
ltoes -14.1029
1290
root 2.52628 18.9193 7.35361 -181.393 2.10104 174.953
lowerback 20.0859 0.457206 -1.37978
upperback 3.416 0.783164 -1.92097
thorax -7.51342 0.658352 -1.52869
lowerneck -10.423 0.265953 -6.97622
upperneck 23.7197 -0.518772 4.23863
head 9.16105 -0.886906 2.50729
rclavicle 1.70458e-014 1.59028e-015
rhumerus -10.2622 21.444 -64.8023
rradius 66.8629
rwrist 13.0726
rhand -28.8987 -361.437
rfingers 7.12502
rthumb -2.2539 328.596
lclavicle 1.70458e-014 1.59028e-015
lhumerus -19.6707 -27.9109 65.3515
lradius 46.3
lwrist 14.8988
lhand -23.441 22.8234
lfingers 7.12502
lthumb 3.01717 52.7818
rfemur 1.33714 17.0067 21.096
rtibia 16.9141
rfoot -16.3483 -13.4502
rtoes 5.17312
lfemur -65.6596 14.5608 -20.2167
ltibia 86.235
lfoot -16.4324 -5.94257
ltoes -13.5854
